<?xml version="1.0" encoding="UTF-8"?><svg id="b" xmlns="http://www.w3.org/2000/svg" viewBox="0 0 206.9 55.2"><g id="c"><line x1="2.5" y1="52.7" x2="201.2" y2="52.7" style="fill:none; stroke:#fff; stroke-linecap:round; stroke-miterlimit:10; stroke-width:5px;"/><path d="M8.7,33.4c0,2.9,1.8,4.2,4.2,4.2,8.7,0,18.2-12.5,19.6-12.5s1.4,1.6,1.4,3c0,3.3-13.4,15.4-22.1,15.4S1.9,38.8,1.9,34.1c0-9.4,12.2-20.2,19-20.2s3.4,1.3,3.7,2.2c1.4.6,1.4,1.7,1.4,2,0,1.1-.8,2.2-3.7,5.3-1,1.2-1.7,2.2-2.9,2.2s-2.6-.6-2.6-2.2.2-1.2.5-2.1c-7.1,5.2-8.7,9.4-8.7,12.1Z" style="fill:#fff;"/><path d="M31.6,43.6c-3,0-5.6-2.1-5.6-6.7,0-10.2,14.1-22.8,18.2-22.8s3.2,1.8,3.5,3c1.4,0,2,1.8,2,3,0,2.6-.7,5.4-1.8,8.2.3.2.8.3,1.3.3,5.1,0,9.7-5.8,10.6-5.8s1.2.8,1.2,2.3c0,2.7-5.9,8.8-13,8.8s-1.9,0-2.8-.4c-3.6,5.7-8.9,10.2-13.6,10.2ZM40.9,27.2c0-2.2.6-4.3,1.8-6.4-5.6,3.9-9.6,10.2-9.6,14s.4,1.4,1.2,1.4c1.8,0,4.9-3.3,6.9-6.9-.2-.6-.3-1.3-.3-2.1Z" style="fill:#fff;"/><path d="M54.1,41.6c-.7,1.8-1.4,2-2.1,2-2.5,0-3.4-1.7-3.4-4.1s.5-2.5,3.4-7.1c8.2-12.9,10-16.6,12.9-16.6s2.3.8,2.3,1.8-1.5,2.1-7.2,12.4c10.1-11,14.6-15.4,16.8-15.4s2.2,1.4,2.2,2.4c0,3.8-9.5,11.9-9.5,17.1s.6,2.2,1.5,2.2c4.9,0,14.6-11.2,15.4-11.2s1.4,1.8,1.4,3c0,2.6-12.3,15.4-18.5,15.4s-5.2-2.6-5.2-6.6,2.2-8.5,4.4-11.4c-6.5,5.1-10.7,10.5-14.6,16Z" style="fill:#fff;"/><path d="M88.4,34.1c0,1.1.5,1.8,1.6,1.8,5,0,13.8-10.8,14.8-10.8s1.4,1.8,1.4,3c0,2.2-11.7,15.4-19.4,15.4s-5.5-1.2-5.5-7.1,2.8-9.2,6.5-14.6c-1,.2-1.8.2-2.5.2-2,0-3.4-.4-3.4-2s.5-3,3.6-3.8c1.8-.4,4.5-.7,7.2-1,1.8-2.2,3.4-4.1,5-5.8,2.5-2.6,3.5-3.4,4.7-3.4s1.4,1,1.4,1.9-1.8,3-4.6,6.7c1,0,2.2-.2,3-.2,1.8,0,2.7,1,2.7,3.1s-.4,2.2-2.6,2.3c-2.7,0-5.2.3-7.5.7-3.4,5.1-6.6,10.6-6.6,13.2Z" style="fill:#fff;"/><path d="M103.7,43.6c-3.2,0-5.8-2.8-5.8-7s6.1-15.8,11-20.7,2.7-2.1,3.8-2.1c1.5,0,2.9,2,2.9,3s-.9,1.7-2.3,3.6c-3,3.8-7.5,9.8-7.5,13s.6,1.7,1.7,1.7c5.5,0,13.3-9.9,14.4-9.9s1.4,1.8,1.4,3c0,2.2-11.6,15.4-19.4,15.4ZM115.4,6.2c0-1.8,2.2-6.2,5.8-6.2s3,1.3,3,3.2-3,6.5-5.6,6.5-3.2-1.4-3.2-3.4Z" style="fill:#fff;"/><path d="M118.3,41.6c-.7,1.8-1.4,2-2.1,2-2.5,0-3.4-1.7-3.4-4.1s.5-2.5,3.4-7.1c8.2-12.9,10-16.6,12.9-16.6s2.3.8,2.3,1.8-1.5,2.1-7.2,12.4c10.1-11,14.6-15.4,16.8-15.4s2.2,1.4,2.2,2.4c0,3.8-9.5,11.9-9.5,17.1s.6,2.2,1.5,2.2c4.9,0,14.6-11.2,15.4-11.2s1.4,1.8,1.4,3c0,2.6-12.3,15.4-18.5,15.4s-5.2-2.6-5.2-6.6,2.2-8.5,4.4-11.4c-6.5,5.1-10.7,10.5-14.6,16Z" style="fill:#fff;"/><path d="M149.1,44c-2.6,0-5-3.8-5-6.2,0-6.8,10.6-20.4,12.9-20.4s2.6.9,2.6,2.2-1.5,2.7-3.2,5.1c-2.6,3.8-5.6,8.6-5.6,10.5s.2.9.7.9c1.7,0,6.8-6.7,9.6-10.8,5.3-7.8,5.7-7.9,7.4-7.9s2.6,1.3,2.6,2.2-.4,1-2.4,3.6c-3,3.9-6.2,8.9-6.2,11.5s.6,1.7,1.7,1.7c4.9,0,14.6-11.2,15.4-11.2s1.4,1.8,1.4,3c0,2.5-12.1,15.4-18.9,15.4s-4.8-2.8-4.8-7.3c-3.6,5-6.6,7.7-8.3,7.7Z" style="fill:#fff;"/><path d="M185.5,37.5c9.2,0,18.7-12.4,20-12.4s1.4,1.4,1.4,3c0,3.1-13,15.4-22.6,15.4s-10.2-4.6-10.2-9.2c0-9.4,12.2-20.8,19-20.8s4.3,1.6,4.3,4.7c0,5.4-8.6,15.4-14,15.4s-2.2-.2-3.4-.8c0,3,2.2,4.6,5.4,4.6ZM182.7,30c1.8,0,3.9-2.4,5.8-4.6,1.8-2.1,3-4.2,3-5s-.5-1.2-1-1.2c-1.4,0-7.3,5.1-9.5,10.3.5.3,1.1.5,1.8.5Z" style="fill:#fff;"/></g></svg>