<?xml version="1.0" encoding="UTF-8"?><svg id="b" xmlns="http://www.w3.org/2000/svg" viewBox="0 0 528.3 150.7"><g id="c"><path d="M11.4,108.3c-.3,2.9.3,5.8-3,5.8S0,109.8,0,105.8c0-10.2,28.2-55.4,47.4-81.8-12,4-23.5,9-30.2,13-.6,1.8-1.6,2.1-2.1,2.1-1.4,0-4.6-2.6-4.6-5.6,0-8.3,26.2-18.9,49.8-25.3,2.1-2.2,3.7-3.7,4.5-3.7,2.7,0,4.6.3,5.9,1,8.3-1.9,15.7-3,20.3-3,13.4,0,21.1,9.6,21.1,18.9,0,21.4-41,45.1-65.3,45.1s-7-.5-9.8-2.1c-7.7,12.6-16.3,27.4-25.6,44ZM45.6,50.6c1.1.3,2.4.5,4.2.5,17,0,49.1-20.3,49.1-30.9s-4.8-4.2-13-4.2-11.4,1-18.1,2.4c-5.3,6.6-12.8,17.4-22.2,32.2Z" style="fill:#fff;"/><path d="M93.1,109.9c-6.4,0-11.7-5.6-11.7-13.9s12.2-31.7,21.9-41.4c3.5-3.5,5.4-4.2,7.5-4.2,3,0,5.8,4,5.8,5.9s-1.8,3.4-4.6,7.2c-5.9,7.7-15,19.7-15,25.9s1.3,3.4,3.4,3.4c11,0,26.6-19.8,28.8-19.8s2.9,3.5,2.9,6.1c0,4.5-23.2,30.9-38.9,30.9ZM116.5,35.2c0-3.5,4.5-12.5,11.7-12.5s5.9,2.6,5.9,6.4-5.9,13-11.2,13-6.4-2.9-6.4-6.9Z" style="fill:#fff;"/><path d="M134.1,89.4c0,5.8,3.5,8.5,8.3,8.5,17.4,0,36.5-25,39.2-25s2.9,3.2,2.9,6.1c0,6.6-26.9,30.9-44.2,30.9s-19.7-9.6-19.7-19c0-18.7,24.5-40.3,38.1-40.3s6.9,2.6,7.4,4.3c2.7,1.3,2.9,3.4,2.9,4,0,2.2-1.6,4.3-7.4,10.6-2.1,2.4-3.4,4.3-5.8,4.3s-5.3-1.1-5.3-4.3.3-2.4,1-4.2c-14.2,10.4-17.4,18.7-17.4,24.2Z" style="fill:#fff;"/><path d="M200.5,73.6c-.5,3.7-.6,7-.6,9.8,0,7.2,1.4,12,6.2,12,9.3,0,29-22.4,30.9-22.4s2.9,3.4,2.9,6.1c0,5.3-23.5,30.9-38.7,30.9s-11.5-3.5-11.5-17.8.3-7.8,1.4-12.6c-1.1.6-2.2,1.3-3.2,2.1-4.8,8.6-9.9,18.1-14.9,28.3-1.8,3.7-3,5.1-6.1,5.1-4.6,0-5.3-3.4-5.3-5.4,0-6.6,10.7-25.9,26.9-52.2,22.6-36.3,27-42.7,31.7-42.7s3.7,2.1,3.7,4.5-11.5,19.8-27,46.6c12.6-8.3,26.7-16.8,33.1-16.8s2.6,1.3,2.6,4.2c0,5.4-1.8,7.8-3.8,7.8s-1.4-.2-1.8-.3c-6.7,2.2-15.8,6.7-26.4,13Z" style="fill:#fff;"/><path d="M249.3,25.6c0-2.1,4.2-12.6,7-19.4,2.2-4.8,4.5-6.2,6.9-6.2s7,2.7,7,5c0,3.2-4.5,10.7-11.7,21.1-1,1.4-3.2,4.5-4.3,4.5-2.4,0-5-3-5-5Z" style="fill:#fff;"/><path d="M257.8,94.6c14.7-1.9,25.8-2.4,30.9-2.4,8.3,0,11.2,4,11.2,8.2s-1,6.2-3.5,6.2-2.9-.2-4.8-.2c-18.7,0-41.1,7.7-48.2,7.7-4.6-.3-6.2-5.1-6.2-9.4,0-12.2,24.8-49.6,48.8-77-1.6-1.8-2.7-4.3-2.7-7.4s0-4.8,16.2-7c2.6-2.6,4.3-3.5,6.2-3.5s2.2,1,3,2.4c9.1-1,16.2-1.3,22.1-1.3s10.6,7.4,10.6,12-1.9,2.7-7.4,2.7c-11.8,0-24.8,2.1-33.3,3.5-5.8,7.4-11.5,15.4-17,23.7,5.8-1,9.9-1.3,12.8-1.3,10.4,0,12,4,12,5.8s-1.1,3.2-2.6,4.5c1,.8,1.1,1.6,1.1,1.9,0,1.3-1,1.4-2.6,1.4-8.6,0-21.3,1.4-30.9,3.2-4.8,7.7-9.3,15.2-13.3,21.9l-2.6,4.3Z" style="fill:#fff;"/><path d="M340.2,107.8c-2.1,0-5-1.8-5-5.4,0-5.9,13.8-27.4,19.2-35.7-13.1,12.3-24.8,25-34.6,36-4.3,4.8-6.6,9.3-8.8,9.3s-5.1-3.8-5.1-7.8,1-5.9,8.5-18.4c17.8-29,21.6-31.4,23.2-31.4s4.5,2.7,4.5,4.8-4.6,11-13.3,25c23-23.8,28.8-29.1,32.5-29.1s4.8,1.9,4.8,3.8c0,3.2-8.8,17.9-13.1,26.4,24.3-25,32-31.4,34.1-31.4s4.8,3.2,4.8,5.3c0,3-17.4,20-17.4,31.8s.3,4.3,3,4.3c9.8,0,29.1-22.4,30.9-22.4s2.9,3.5,2.9,6.1c0,5-24.6,30.9-37,30.9s-11-4-11-12,2.6-14.1,8.5-22.9c-23.2,21.6-26.9,32.8-31.5,32.8Z" style="fill:#fff;"/><path d="M409.8,114.2c-3.8,0-8.2-1.8-11-4.6-3.5-3.4-5-7.7-5-13.3,0-20.2,30.9-60.5,46.1-75.7,4.8-4.8,7-5.6,9-5.6s4.6,3.4,4.6,5.6c0,4.2-4.8,8.3-15.7,21.6-14.1,17.3-29.8,42.7-29.8,51.7s.8,3.8,2.7,3.8c16.6,0,56.3-64.8,71.5-85,3.4-4.3,5.6-5.8,7.2-5.8,2.7,0,8.2,2.9,8.2,5.3s-.5,1.9-2.9,4.2c-9.6,13.9-41.9,57.3-41.9,73.9s.6,3.4,2.6,3.4c10.2,0,27.4-20.8,29.4-20.8s2.9,3.7,2.9,6.1c0,5-23,30.9-35.5,30.9s-11.5-7.2-11.5-16,1.3-9.3,3.7-15.5c-11.5,18.2-26.1,35.8-34.6,35.8Z" style="fill:#fff;"/><path d="M460,144.5c-1.4,5-3.2,6.2-6.2,6.2-4.6,0-6.9-5.8-6.9-8.3,0-10.1,16.3-35.4,32.2-62.2,29.1-49.4,28.3-51.5,33.8-51.5s5.9,2.2,5.9,5-4.8,9.9-11.7,21.6c5-4,9.8-6.6,13.6-6.6s7.7,4,7.7,10.2c0,16.5-20.6,51-37.3,51s-8-3.8-9.8-8c-6.7,12.6-13.9,26.9-21.3,42.6ZM512.6,65.9c0-1.8-.6-2.7-1.6-2.7-3.2,0-9.4,6.6-14.1,13.3-6.4,9.1-8.6,13.1-8.6,16s.6,2.7,3,2.7c7.2,0,21.3-22.1,21.3-29.3Z" style="fill:#fff;"/></g></svg>