<?xml version="1.0" encoding="UTF-8"?><svg id="b" xmlns="http://www.w3.org/2000/svg" xmlns:xlink="http://www.w3.org/1999/xlink" viewBox="0 0 1250 1472.6"><defs><linearGradient id="d" x1="625" y1="383.7" x2="625" y2="1472.6" gradientUnits="userSpaceOnUse"><stop offset="0" stop-color="#6fae8a"/><stop offset="1" stop-color="#27ae60"/></linearGradient></defs><g id="c"><path d="M0,476.3l209.6-20.9c8.9-.9,17.9-1,26.9-.2l106.6,9.1c7.1.6,14.3,1.6,21.3,3l142.4,28c22.9,4.5,46.8,1.1,67.4-9.6l37.4-19.5c15.3-8,31.4-14.3,48.2-18.8l188.8-50.9c49.1-13.2,100.5-16.2,150.9-8.6l46.7,7,203.8,44.4v1033.3H0V476.3Z" style="fill:url(#d);"/><line x1="900.6" y1="525.9" x2="900.6" y2="174.4" style="fill:none; stroke:gray; stroke-miterlimit:10; stroke-width:40px;"/><line x1="775.9" y1="272.3" x2="1022.6" y2="272.3" style="fill:none; stroke:gray; stroke-miterlimit:10; stroke-width:10px;"/><line x1="1020.9" y1="272.6" x2="1020.9" y2="202.8" style="fill:none; stroke:gray; stroke-miterlimit:10; stroke-width:10px;"/><line x1="777.5" y1="272.6" x2="777.5" y2="202.8" style="fill:none; stroke:gray; stroke-miterlimit:10; stroke-width:10px;"/><line x1="775.9" y1="204.5" x2="1022.6" y2="204.5" style="fill:none; stroke:gray; stroke-miterlimit:10; stroke-width:10px;"/><line x1="980.3" y1="272.6" x2="980.3" y2="202.8" style="fill:none; stroke:gray; stroke-miterlimit:10; stroke-width:10px;"/><line x1="858.6" y1="272.6" x2="858.6" y2="202.8" style="fill:none; stroke:gray; stroke-miterlimit:10; stroke-width:10px;"/><line x1="818.1" y1="272.6" x2="818.1" y2="202.8" style="fill:none; stroke:gray; stroke-miterlimit:10; stroke-width:10px;"/><line x1="939.7" y1="272.6" x2="939.7" y2="202.8" style="fill:none; stroke:gray; stroke-miterlimit:10; stroke-width:10px;"/><path d="M926.2,33.3c0,104.2-11.6,188.7-25.8,188.7s-25.8-84.5-25.8-188.7h51.7Z" style="fill:none; stroke:gray; stroke-miterlimit:10; stroke-width:16.9px;"/><path d="M969.4,33.3c0,104.2-39.6,188.7-88.5,188.7s-88.5-84.5-88.5-188.7h177Z" style="fill:none; stroke:gray; stroke-miterlimit:10; stroke-width:19.2px;"/><path d="M1008.3,33.3c0,104.2-39.6,188.7-88.5,188.7s-88.5-84.5-88.5-188.7h177Z" style="fill:none; stroke:gray; stroke-miterlimit:10; stroke-width:19.2px;"/><rect x="777.8" width="245.1" height="33.3" style="fill:#ffff85;"/></g></svg>