<?xml version="1.0" encoding="UTF-8"?><svg id="b" xmlns="http://www.w3.org/2000/svg" viewBox="0 0 803.3 295.2"><g id="c"><path d="M149.9,136c-.3,2.9.3,5.8-3,5.8s-8.3-4.3-8.3-8.3c0-10.2,28.2-55.4,47.4-81.8-12,4-23.5,9-30.2,13-.6,1.8-1.6,2.1-2.1,2.1-1.4,0-4.6-2.6-4.6-5.6,0-8.3,26.2-18.9,49.8-25.3,2.1-2.2,3.7-3.7,4.5-3.7,2.7,0,4.6.3,5.9,1,8.3-1.9,15.7-3,20.3-3,13.4,0,21.1,9.6,21.1,18.9,0,21.4-41,45.1-65.3,45.1s-7-.5-9.8-2.1c-7.7,12.6-16.3,27.4-25.6,44ZM184.1,78.2c1.1.3,2.4.5,4.2.5,17,0,49.1-20.3,49.1-30.9s-4.8-4.2-13-4.2-11.4,1-18.1,2.4c-5.3,6.6-12.8,17.4-22.2,32.2Z" style="fill:#fff;"/><path d="M231.6,137.6c-6.4,0-11.7-5.6-11.7-13.9s12.2-31.7,21.9-41.4c3.5-3.5,5.4-4.2,7.5-4.2,3,0,5.8,4,5.8,5.9s-1.8,3.4-4.6,7.2c-5.9,7.7-15,19.7-15,25.9s1.3,3.4,3.4,3.4c11,0,26.6-19.8,28.8-19.8s2.9,3.5,2.9,6.1c0,4.5-23.2,30.9-38.9,30.9ZM255,62.9c0-3.5,4.5-12.5,11.7-12.5s5.9,2.6,5.9,6.4-5.9,13-11.2,13-6.4-2.9-6.4-6.9Z" style="fill:#fff;"/><path d="M272.6,117.1c0,5.8,3.5,8.5,8.3,8.5,17.4,0,36.5-25,39.2-25s2.9,3.2,2.9,6.1c0,6.6-26.9,30.9-44.2,30.9s-19.7-9.6-19.7-19c0-18.7,24.5-40.3,38.1-40.3s6.9,2.6,7.4,4.3c2.7,1.3,2.9,3.4,2.9,4,0,2.2-1.6,4.3-7.4,10.6-2.1,2.4-3.4,4.3-5.8,4.3s-5.3-1.1-5.3-4.3.3-2.4,1-4.2c-14.2,10.4-17.4,18.7-17.4,24.2Z" style="fill:#fff;"/><path d="M339,101.3c-.5,3.7-.6,7-.6,9.8,0,7.2,1.4,12,6.2,12,9.3,0,29-22.4,30.9-22.4s2.9,3.4,2.9,6.1c0,5.3-23.5,30.9-38.7,30.9s-11.5-3.5-11.5-17.8.3-7.8,1.4-12.6c-1.1.6-2.2,1.3-3.2,2.1-4.8,8.6-9.9,18.1-14.9,28.3-1.8,3.7-3,5.1-6.1,5.1-4.6,0-5.3-3.4-5.3-5.4,0-6.6,10.7-25.9,26.9-52.2,22.6-36.3,27-42.7,31.7-42.7s3.7,2.1,3.7,4.5-11.5,19.8-27,46.6c12.6-8.3,26.7-16.8,33.1-16.8s2.6,1.3,2.6,4.2c0,5.4-1.8,7.8-3.8,7.8s-1.4-.2-1.8-.3c-6.7,2.2-15.8,6.7-26.4,13Z" style="fill:#fff;"/><path d="M387.8,53.3c0-2.1,4.2-12.6,7-19.4,2.2-4.8,4.5-6.2,6.9-6.2s7,2.7,7,5c0,3.2-4.5,10.7-11.7,21.1-1,1.4-3.2,4.5-4.3,4.5-2.4,0-5-3-5-5Z" style="fill:#fff;"/><path d="M396.3,122.2c14.7-1.9,25.8-2.4,30.9-2.4,8.3,0,11.2,4,11.2,8.2s-1,6.2-3.5,6.2-2.9-.2-4.8-.2c-18.7,0-41.1,7.7-48.2,7.7-4.6-.3-6.2-5.1-6.2-9.4,0-12.2,24.8-49.6,48.8-77-1.6-1.8-2.7-4.3-2.7-7.4s0-4.8,16.2-7c2.6-2.6,4.3-3.5,6.2-3.5s2.2,1,3,2.4c9.1-1,16.2-1.3,22.1-1.3s10.6,7.4,10.6,12-1.9,2.7-7.4,2.7c-11.8,0-24.8,2.1-33.3,3.5-5.8,7.4-11.5,15.4-17,23.7,5.8-1,9.9-1.3,12.8-1.3,10.4,0,12,4,12,5.8s-1.1,3.2-2.6,4.5c1,.8,1.1,1.6,1.1,1.9,0,1.3-1,1.4-2.6,1.4-8.6,0-21.3,1.4-30.9,3.2-4.8,7.7-9.3,15.2-13.3,21.9l-2.6,4.3Z" style="fill:#fff;"/><path d="M478.7,135.5c-2.1,0-5-1.8-5-5.4,0-5.9,13.8-27.4,19.2-35.7-13.1,12.3-24.8,25-34.6,36-4.3,4.8-6.6,9.3-8.8,9.3s-5.1-3.8-5.1-7.8,1-5.9,8.5-18.4c17.8-29,21.6-31.4,23.2-31.4s4.5,2.7,4.5,4.8-4.6,11-13.3,25c23-23.8,28.8-29.1,32.5-29.1s4.8,1.9,4.8,3.8c0,3.2-8.8,17.9-13.1,26.4,24.3-25,32-31.4,34.1-31.4s4.8,3.2,4.8,5.3c0,3-17.4,20-17.4,31.8s.3,4.3,3,4.3c9.8,0,29.1-22.4,30.9-22.4s2.9,3.5,2.9,6.1c0,5-24.6,30.9-37,30.9s-11-4-11-12,2.6-14.1,8.5-22.9c-23.2,21.6-26.9,32.8-31.5,32.8Z" style="fill:#fff;"/><path d="M548.3,141.9c-3.8,0-8.2-1.8-11-4.6-3.5-3.4-5-7.7-5-13.3,0-20.2,30.9-60.5,46.1-75.7,4.8-4.8,7-5.6,9-5.6s4.6,3.4,4.6,5.6c0,4.2-4.8,8.3-15.7,21.6-14.1,17.3-29.8,42.7-29.8,51.7s.8,3.8,2.7,3.8c16.6,0,56.3-64.8,71.5-85,3.4-4.3,5.6-5.8,7.2-5.8,2.7,0,8.2,2.9,8.2,5.3s-.5,1.9-2.9,4.2c-9.6,13.9-41.9,57.3-41.9,73.9s.6,3.4,2.6,3.4c10.2,0,27.4-20.8,29.4-20.8s2.9,3.7,2.9,6.1c0,5-23,30.9-35.5,30.9s-11.5-7.2-11.5-16,1.3-9.3,3.7-15.5c-11.5,18.2-26.1,35.8-34.6,35.8Z" style="fill:#fff;"/><path d="M598.5,172.2c-1.4,5-3.2,6.2-6.2,6.2-4.6,0-6.9-5.8-6.9-8.3,0-10.1,16.3-35.4,32.2-62.2,29.1-49.4,28.3-51.5,33.8-51.5s5.9,2.2,5.9,5-4.8,9.9-11.7,21.6c5-4,9.8-6.6,13.6-6.6s7.7,4,7.7,10.2c0,16.5-20.6,51-37.3,51s-8-3.8-9.8-8c-6.7,12.6-13.9,26.9-21.3,42.6ZM651.2,93.6c0-1.8-.6-2.7-1.6-2.7-3.2,0-9.4,6.6-14.1,13.3-6.4,9.1-8.6,13.1-8.6,16s.6,2.7,3,2.7c7.2,0,21.3-22.1,21.3-29.3Z" style="fill:#fff;"/><path d="M149.9,136c-.3,2.9.3,5.8-3,5.8s-8.3-4.3-8.3-8.3c0-10.2,28.2-55.4,47.4-81.8-12,4-23.5,9-30.2,13-.6,1.8-1.6,2.1-2.1,2.1-1.4,0-4.6-2.6-4.6-5.6,0-8.3,26.2-18.9,49.8-25.3,2.1-2.2,3.7-3.7,4.5-3.7,2.7,0,4.6.3,5.9,1,8.3-1.9,15.7-3,20.3-3,13.4,0,21.1,9.6,21.1,18.9,0,21.4-41,45.1-65.3,45.1s-7-.5-9.8-2.1c-7.7,12.6-16.3,27.4-25.6,44ZM184.1,78.2c1.1.3,2.4.5,4.2.5,17,0,49.1-20.3,49.1-30.9s-4.8-4.2-13-4.2-11.4,1-18.1,2.4c-5.3,6.6-12.8,17.4-22.2,32.2Z" style="fill:#fff;"/><path d="M231.6,137.6c-6.4,0-11.7-5.6-11.7-13.9s12.2-31.7,21.9-41.4,5.4-4.2,7.5-4.2c3,0,5.8,4,5.8,5.9s-1.8,3.4-4.6,7.2c-5.9,7.7-15,19.7-15,25.9s1.3,3.4,3.4,3.4c11,0,26.6-19.8,28.8-19.8s2.9,3.5,2.9,6.1c0,4.5-23.2,30.9-38.9,30.9ZM255,62.9c0-3.5,4.5-12.5,11.7-12.5s5.9,2.6,5.9,6.4-5.9,13-11.2,13-6.4-2.9-6.4-6.9Z" style="fill:#fff;"/><path d="M272.6,117.1c0,5.8,3.5,8.5,8.3,8.5,17.4,0,36.5-25,39.2-25s2.9,3.2,2.9,6.1c0,6.6-26.9,30.9-44.2,30.9s-19.7-9.6-19.7-19c0-18.7,24.5-40.3,38.1-40.3s6.9,2.6,7.4,4.3c2.7,1.3,2.9,3.4,2.9,4,0,2.2-1.6,4.3-7.4,10.6-2.1,2.4-3.4,4.3-5.8,4.3s-5.3-1.1-5.3-4.3.3-2.4,1-4.2c-14.2,10.4-17.4,18.7-17.4,24.2Z" style="fill:#fff;"/><path d="M339,101.3c-.5,3.7-.6,7-.6,9.8,0,7.2,1.4,12,6.2,12,9.3,0,29-22.4,30.9-22.4s2.9,3.4,2.9,6.1c0,5.3-23.5,30.9-38.7,30.9s-11.5-3.5-11.5-17.8.3-7.8,1.4-12.6c-1.1.6-2.2,1.3-3.2,2.1-4.8,8.6-9.9,18.1-14.9,28.3-1.8,3.7-3,5.1-6.1,5.1-4.6,0-5.3-3.4-5.3-5.4,0-6.6,10.7-25.9,26.9-52.2,22.6-36.3,27-42.7,31.7-42.7s3.7,2.1,3.7,4.5-11.5,19.8-27,46.6c12.6-8.3,26.7-16.8,33.1-16.8s2.6,1.3,2.6,4.2c0,5.4-1.8,7.8-3.8,7.8s-1.4-.2-1.8-.3c-6.7,2.2-15.8,6.7-26.4,13Z" style="fill:#fff;"/><path d="M387.8,53.3c0-2.1,4.2-12.6,7-19.4,2.2-4.8,4.5-6.2,6.9-6.2s7,2.7,7,5c0,3.2-4.5,10.7-11.7,21.1-1,1.4-3.2,4.5-4.3,4.5-2.4,0-5-3-5-5Z" style="fill:#fff;"/><path d="M396.3,122.2c14.7-1.9,25.8-2.4,30.9-2.4,8.3,0,11.2,4,11.2,8.2s-1,6.2-3.5,6.2-2.9-.2-4.8-.2c-18.7,0-41.1,7.7-48.2,7.7-4.6-.3-6.2-5.1-6.2-9.4,0-12.2,24.8-49.6,48.8-77-1.6-1.8-2.7-4.3-2.7-7.4s0-4.8,16.2-7c2.6-2.6,4.3-3.5,6.2-3.5s2.2,1,3,2.4c9.1-1,16.2-1.3,22.1-1.3s10.6,7.4,10.6,12-1.9,2.7-7.4,2.7c-11.8,0-24.8,2.1-33.3,3.5-5.8,7.4-11.5,15.4-17,23.7,5.8-1,9.9-1.3,12.8-1.3,10.4,0,12,4,12,5.8s-1.1,3.2-2.6,4.5c1,.8,1.1,1.6,1.1,1.9,0,1.3-1,1.4-2.6,1.4-8.6,0-21.3,1.4-30.9,3.2-4.8,7.7-9.3,15.2-13.3,21.9l-2.6,4.3Z" style="fill:#fff;"/><path d="M478.7,135.5c-2.1,0-5-1.8-5-5.4,0-5.9,13.8-27.4,19.2-35.7-13.1,12.3-24.8,25-34.6,36-4.3,4.8-6.6,9.3-8.8,9.3s-5.1-3.8-5.1-7.8,1-5.9,8.5-18.4c17.8-29,21.6-31.4,23.2-31.4s4.5,2.7,4.5,4.8-4.6,11-13.3,25c23-23.8,28.8-29.1,32.5-29.1s4.8,1.9,4.8,3.8c0,3.2-8.8,17.9-13.1,26.4,24.3-25,32-31.4,34.1-31.4s4.8,3.2,4.8,5.3c0,3-17.4,20-17.4,31.8s.3,4.3,3,4.3c9.8,0,29.1-22.4,30.9-22.4s2.9,3.5,2.9,6.1c0,5-24.6,30.9-37,30.9s-11-4-11-12,2.6-14.1,8.5-22.9c-23.2,21.6-26.9,32.8-31.5,32.8Z" style="fill:#fff;"/><path d="M548.3,141.9c-3.8,0-8.2-1.8-11-4.6-3.5-3.4-5-7.7-5-13.3,0-20.2,30.9-60.5,46.1-75.7,4.8-4.8,7-5.6,9-5.6s4.6,3.4,4.6,5.6c0,4.2-4.8,8.3-15.7,21.6-14.1,17.3-29.8,42.7-29.8,51.7s.8,3.8,2.7,3.8c16.6,0,56.3-64.8,71.5-85,3.4-4.3,5.6-5.8,7.2-5.8,2.7,0,8.2,2.9,8.2,5.3s-.5,1.9-2.9,4.2c-9.6,13.9-41.9,57.3-41.9,73.9s.6,3.4,2.6,3.4c10.2,0,27.4-20.8,29.4-20.8s2.9,3.7,2.9,6.1c0,5-23,30.9-35.5,30.9s-11.5-7.2-11.5-16,1.3-9.3,3.7-15.5c-11.5,18.2-26.1,35.8-34.6,35.8Z" style="fill:#fff;"/><path d="M598.5,172.2c-1.4,5-3.2,6.2-6.2,6.2-4.6,0-6.9-5.8-6.9-8.3,0-10.1,16.3-35.4,32.2-62.2,29.1-49.4,28.3-51.5,33.8-51.5s5.9,2.2,5.9,5-4.8,9.9-11.7,21.6c5-4,9.8-6.6,13.6-6.6s7.7,4,7.7,10.2c0,16.5-20.6,51-37.3,51s-8-3.8-9.8-8c-6.7,12.6-13.9,26.9-21.3,42.6ZM651.2,93.6c0-1.8-.6-2.7-1.6-2.7-3.2,0-9.4,6.6-14.1,13.3-6.4,9.1-8.6,13.1-8.6,16s.6,2.7,3,2.7c7.2,0,21.3-22.1,21.3-29.3Z" style="fill:#fff;"/><path d="M30.4,294.6h-3.4l-17.2-36-6.3,36H0l7.3-42h3.4l17.2,36,6.3-36h3.5l-7.3,42Z" style="fill:#fff;"/><path d="M52.5,295.2c-2.5,0-4.7-.7-6.5-2.1-1.8-1.4-3.2-3.2-4-5.5-.9-2.3-1.2-4.9-.9-7.6v-1c.4-2.9,1.2-5.6,2.7-8.2,1.4-2.6,3.3-4.6,5.5-6s4.6-2,7.1-2c2.3,0,4.3.7,5.9,1.9,1.6,1.2,2.8,2.9,3.5,5.1.7,2.2,1,4.6.7,7.3l-.2,2.1h-21.6v.7c-.4,2.1-.2,4.1.4,6,.6,1.9,1.6,3.4,2.9,4.6,1.4,1.1,3,1.7,4.9,1.7,1.8,0,3.5-.3,5-1.1,1.5-.8,2.8-1.8,4.1-3.1l2,1.6c-1.4,1.8-3.1,3.2-5,4.1-1.9.9-4.1,1.4-6.4,1.3ZM56.2,265.8c-2.5,0-4.7.8-6.7,2.7-2,1.9-3.5,4.5-4.5,7.9h18.1s0-.4,0-.4c.3-2.7-.1-5.1-1.4-7-1.3-2-3.2-3-5.6-3.1Z" style="fill:#fff;"/><path d="M80.1,289.7l13.3-26.3h3.6l-16.2,31.2h-2.8l-6.5-31.2h3.4l5.1,26.3Z" style="fill:#fff;"/><path d="M109.8,295.2c-2.5,0-4.7-.7-6.5-2.1-1.8-1.4-3.2-3.2-4-5.5-.9-2.3-1.2-4.9-.9-7.6v-1c.4-2.9,1.2-5.6,2.7-8.2,1.4-2.6,3.3-4.6,5.5-6s4.6-2,7.1-2c2.3,0,4.3.7,5.9,1.9,1.6,1.2,2.8,2.9,3.5,5.1.7,2.2,1,4.6.7,7.3l-.2,2.1h-21.6v.7c-.4,2.1-.2,4.1.4,6,.6,1.9,1.6,3.4,2.9,4.6,1.4,1.1,3,1.7,4.9,1.7,1.8,0,3.5-.3,5-1.1,1.5-.8,2.8-1.8,4.1-3.1l2,1.6c-1.4,1.8-3.1,3.2-5,4.1-1.9.9-4.1,1.4-6.4,1.3ZM113.5,265.8c-2.5,0-4.7.8-6.7,2.7-2,1.9-3.5,4.5-4.5,7.9h18.1s0-.4,0-.4c.3-2.7-.1-5.1-1.4-7-1.3-2-3.2-3-5.6-3.1Z" style="fill:#fff;"/><path d="M146.4,266.3c-.7-.2-1.5-.2-2.3-.3-2.2,0-4.2.7-6,2-1.8,1.3-3,3-3.7,5.1l-3.7,21.4h-3.4l5.4-31.2h3.4l-1,5c1.1-1.8,2.5-3.2,4.1-4.2,1.6-1,3.4-1.4,5.3-1.4.7,0,1.5.1,2.4.4l-.5,3.1Z" style="fill:#fff;"/><path d="M164.9,294.6h-3.5l7.7-44.3h3.5l-7.7,44.3Z" style="fill:#fff;"/><path d="M186.6,295.2c-2.5,0-4.7-.7-6.5-2.1-1.8-1.4-3.2-3.2-4-5.5-.9-2.3-1.2-4.9-.9-7.6v-1c.4-2.9,1.2-5.6,2.7-8.2,1.4-2.6,3.3-4.6,5.5-6s4.6-2,7.1-2c2.3,0,4.3.7,5.9,1.9,1.6,1.2,2.8,2.9,3.5,5.1.7,2.2,1,4.6.7,7.3l-.2,2.1h-21.6v.7c-.4,2.1-.2,4.1.4,6,.6,1.9,1.6,3.4,2.9,4.6,1.4,1.1,3,1.7,4.9,1.7,1.8,0,3.5-.3,5-1.1,1.5-.8,2.8-1.8,4.1-3.1l2,1.6c-1.4,1.8-3.1,3.2-5,4.1-1.9.9-4.1,1.4-6.4,1.3ZM190.2,265.8c-2.5,0-4.7.8-6.7,2.7-2,1.9-3.5,4.5-4.5,7.9h18.1s0-.4,0-.4c.3-2.7-.1-5.1-1.4-7-1.3-2-3.2-3-5.6-3.1Z" style="fill:#fff;"/><path d="M223.5,294.6c0-.7-.1-1.5,0-2.2l.3-2.2c-1.4,1.6-3.1,2.8-4.9,3.7-1.9.9-3.9,1.3-6,1.3-2.6,0-4.8-.9-6.4-2.5-1.6-1.6-2.4-3.7-2.2-6.1.2-2.1.9-3.8,2.1-5.3,1.3-1.5,3.1-2.7,5.4-3.5s4.9-1.3,7.8-1.3h6.4s.5-3.5.5-3.5c.2-2.1-.2-3.8-1.4-5.1-1.2-1.3-2.9-2-5.1-2-2.3,0-4.2.5-5.9,1.7-1.7,1.2-2.7,2.7-3.2,4.6h-3.4c.4-2.7,1.8-5,4.2-6.7s5.3-2.6,8.6-2.5c3.2,0,5.7,1,7.4,2.9,1.7,1.9,2.4,4.3,2.1,7.3l-2.6,15.7-.2,2.5c0,1,0,2.1.2,3.1v.3h-3.6ZM213.3,292.2c2.1,0,4.1-.4,6.1-1.5,1.9-1.1,3.5-2.6,4.8-4.6l1.2-6.9h-5.5c-3.5,0-6.4.6-8.6,1.8-2.2,1.2-3.4,3-3.7,5.3-.2,1.7.3,3.1,1.3,4.2,1.1,1.1,2.5,1.7,4.3,1.7Z" style="fill:#fff;"/><path d="M245,289.7l13.3-26.3h3.6l-16.2,31.2h-2.8l-6.5-31.2h3.4l5.1,26.3Z" style="fill:#fff;"/><path d="M274.8,295.2c-2.5,0-4.7-.7-6.5-2.1-1.8-1.4-3.2-3.2-4-5.5-.9-2.3-1.2-4.9-.9-7.6v-1c.4-2.9,1.2-5.6,2.7-8.2,1.4-2.6,3.3-4.6,5.5-6s4.6-2,7.1-2c2.3,0,4.3.7,5.9,1.9,1.6,1.2,2.8,2.9,3.5,5.1.7,2.2,1,4.6.7,7.3l-.2,2.1h-21.6v.7c-.4,2.1-.2,4.1.4,6,.6,1.9,1.6,3.4,2.9,4.6,1.4,1.1,3,1.7,4.9,1.7,1.8,0,3.5-.3,5-1.1,1.5-.8,2.8-1.8,4.1-3.1l2,1.6c-1.4,1.8-3.1,3.2-5,4.1-1.9.9-4.1,1.4-6.4,1.3ZM278.4,265.8c-2.5,0-4.7.8-6.7,2.7-2,1.9-3.5,4.5-4.5,7.9h18.1s0-.4,0-.4c.3-2.7-.1-5.1-1.4-7-1.3-2-3.2-3-5.6-3.1Z" style="fill:#fff;"/><path d="M325.9,294.6c0-.7-.1-1.5,0-2.2l.3-2.2c-1.4,1.6-3.1,2.8-4.9,3.7-1.9.9-3.9,1.3-6,1.3-2.6,0-4.8-.9-6.4-2.5-1.6-1.6-2.4-3.7-2.2-6.1.2-2.1.9-3.8,2.1-5.3,1.3-1.5,3.1-2.7,5.4-3.5s4.9-1.3,7.8-1.3h6.4s.5-3.5.5-3.5c.2-2.1-.2-3.8-1.4-5.1-1.2-1.3-2.9-2-5.1-2-2.3,0-4.2.5-5.9,1.7-1.7,1.2-2.7,2.7-3.2,4.6h-3.4c.4-2.7,1.8-5,4.2-6.7s5.3-2.6,8.6-2.5c3.2,0,5.7,1,7.4,2.9,1.7,1.9,2.4,4.3,2.1,7.3l-2.6,15.7-.2,2.5c0,1,0,2.1.2,3.1v.3h-3.6ZM315.7,292.2c2.1,0,4.1-.4,6.1-1.5,1.9-1.1,3.5-2.6,4.8-4.6l1.2-6.9h-5.5c-3.5,0-6.4.6-8.6,1.8-2.2,1.2-3.4,3-3.7,5.3-.2,1.7.3,3.1,1.3,4.2,1.1,1.1,2.5,1.7,4.3,1.7Z" style="fill:#fff;"/><path d="M346.1,263.4l-1,5.3c1.4-1.9,3-3.4,4.8-4.4,1.8-1,3.8-1.5,5.8-1.5,3,0,5.2,1.1,6.5,3.1,1.4,2,1.8,4.8,1.4,8.3l-3.4,20.3h-3.4l3.4-20.3c.1-1.1.1-2.1,0-3.2-.3-3.4-2.2-5.2-5.6-5.3-2,0-3.9.6-5.7,1.8s-3.3,3.1-4.6,5.6l-3.7,21.4h-3.4l5.4-31.2h3.3Z" style="fill:#fff;"/><path d="M370,278.7c.3-3,1.3-5.8,2.8-8.3s3.4-4.4,5.6-5.7c2.2-1.3,4.7-1.9,7.3-1.9,2.6,0,4.8.7,6.6,2.1,1.8,1.4,3.1,3.2,4,5.6.8,2.4,1.1,5,.9,7.9v.5c-.6,4.9-2.4,8.9-5.3,11.8-2.9,3-6.4,4.4-10.5,4.3-3.5,0-6.3-1.3-8.4-3.9s-3.1-5.8-3.1-10v-1.6c0,0,.2-1,.2-1ZM373.4,279.7c-.2,2.3,0,4.4.5,6.3.6,1.9,1.5,3.4,2.8,4.5,1.3,1.1,2.9,1.7,4.8,1.7,2.1,0,4-.5,5.7-1.6,1.7-1.1,3.1-2.6,4.3-4.6,1.1-2,1.8-4.2,2.2-6.6v-1c.4-3.7-.1-6.7-1.6-9.1-1.5-2.4-3.6-3.6-6.5-3.6-3.1,0-5.7,1.1-8,3.6-2.2,2.5-3.6,5.8-4.1,9.8v.5Z" style="fill:#fff;"/><path d="M413.6,255.4l-1.4,8h6.3l-.5,2.8h-6.3l-3.5,20.8v1.8c0,2.1.9,3.2,2.8,3.2.6,0,1.5,0,2.8-.2v2.8c-1.3.3-2.4.5-3.6.4-2,0-3.5-.7-4.4-2.1-.9-1.4-1.3-3.4-1-6l3.4-20.8h-5.6l.5-2.8h5.5l1.4-8h3.4Z" style="fill:#fff;"/><path d="M427.9,268.7c3-4,6.5-5.9,10.6-5.9,3,0,5.2,1.1,6.5,3.1,1.4,2,1.8,4.8,1.4,8.3l-3.4,20.3h-3.4l3.4-20.3c.1-1.1.1-2.1,0-3.2-.3-3.4-2.2-5.2-5.6-5.3-2,0-3.9.6-5.7,1.8s-3.3,3.1-4.6,5.6l-3.7,21.4h-3.4l7.7-44.3h3.4l-3.4,18.4Z" style="fill:#fff;"/><path d="M464.3,295.2c-2.5,0-4.7-.7-6.5-2.1-1.8-1.4-3.2-3.2-4-5.5-.9-2.3-1.2-4.9-.9-7.6v-1c.4-2.9,1.2-5.6,2.7-8.2,1.4-2.6,3.3-4.6,5.5-6s4.6-2,7.1-2c2.3,0,4.3.7,5.9,1.9,1.6,1.2,2.8,2.9,3.5,5.1s1,4.6.7,7.3l-.2,2.1h-21.6v.7c-.4,2.1-.2,4.1.4,6s1.6,3.4,2.9,4.6c1.4,1.1,3,1.7,4.9,1.7,1.8,0,3.5-.3,5-1.1,1.5-.8,2.8-1.8,4.1-3.1l2,1.6c-1.4,1.8-3.1,3.2-5,4.1-1.9.9-4,1.4-6.4,1.3ZM467.9,265.8c-2.5,0-4.7.8-6.7,2.7-2,1.9-3.5,4.5-4.5,7.9h18.1s0-.4,0-.4c.3-2.7-.1-5.1-1.4-7-1.3-2-3.2-3-5.6-3.1Z" style="fill:#fff;"/><path d="M500.9,266.3c-.7-.2-1.5-.2-2.3-.3-2.2,0-4.2.7-6,2-1.8,1.3-3,3-3.7,5.1l-3.7,21.4h-3.4l5.4-31.2h3.4l-1,5c1.1-1.8,2.5-3.2,4.1-4.2,1.6-1,3.4-1.4,5.3-1.4.7,0,1.5.1,2.4.4l-.5,3.1Z" style="fill:#fff;"/><path d="M516.9,278.9c.4-3.3,1.3-6.2,2.7-8.7,1.3-2.5,3-4.4,4.9-5.6,2-1.2,4.1-1.8,6.6-1.8,1.8,0,3.5.5,5,1.3,1.5.8,2.7,2.1,3.6,3.7l3.2-17.5h3.4l-7.7,44.3h-3.2l.8-4.2c-2.7,3.3-6.1,4.8-10.1,4.7-2.9,0-5.2-1.2-6.8-3.4-1.6-2.2-2.5-5.1-2.6-8.8,0-1.2,0-2.3.1-3.5v-.6ZM520.4,279.5c-.2,1.3-.2,2.7-.2,4.1,0,2.6.7,4.7,1.8,6.2,1.1,1.5,2.8,2.3,4.9,2.4,2.1,0,4-.4,5.6-1.5,1.6-1,3-2.4,4.1-4.1l2.5-14.7c-.6-1.9-1.5-3.3-2.8-4.4-1.3-1.1-2.9-1.6-4.9-1.7-2.9,0-5.4,1-7.3,3.4-2,2.3-3.2,5.6-3.8,9.7v.6Z" style="fill:#fff;"/><path d="M551.5,294.6h-3.5l5.4-31.2h3.4l-5.4,31.2ZM554.4,254.4c0-1.2.9-2,2.5-2.4.8.1,1.3.4,1.6.7.3.3.5.9.6,1.7-.2.7-.5,1.3-.8,1.6-.4.3-.9.6-1.6.7-1.6-.2-2.3-1-2.2-2.3Z" style="fill:#fff;"/><path d="M580.5,286.5c.3-2.7-1.3-4.6-4.8-5.8l-5-1.5c-4.6-1.5-6.7-4.1-6.5-7.7.1-2.6,1.3-4.7,3.6-6.3,2.3-1.6,4.9-2.4,8.1-2.4,3.1,0,5.5.9,7.4,2.6s2.8,3.9,2.7,6.7h-3.4c.1-1.9-.5-3.4-1.7-4.6-1.3-1.2-3-1.8-5.1-1.8-2.2,0-4,.5-5.5,1.5-1.5,1-2.3,2.4-2.5,4.1-.3,2.5,1.2,4.2,4.6,5.2l3.6,1,1.9.7c4.3,1.6,6.4,4.3,6.1,8-.2,2.5-1.2,4.5-3.2,6.2-2,1.6-4.6,2.5-7.8,2.7h-1.2c-2.1,0-4-.4-5.7-1.2s-3-1.9-3.9-3.3c-.9-1.4-1.3-3-1.2-4.8h3.4c0,2,.7,3.5,2,4.7,1.3,1.1,3.2,1.7,5.5,1.8,2.3,0,4.3-.5,5.9-1.6s2.5-2.5,2.8-4.2Z" style="fill:#fff;"/><path d="M602.2,292.3c2.3,0,4.3-.6,6-1.9,1.7-1.3,2.9-3.1,3.5-5.4h3.3c-.6,3.1-2.1,5.6-4.5,7.5-2.5,1.9-5.2,2.8-8.4,2.7-2.5,0-4.6-.7-6.3-2.1-1.7-1.3-2.9-3.2-3.7-5.5-.8-2.3-1-5-.7-7.9v-1.2c.3-2,.8-4,1.6-5.9.8-1.9,1.8-3.6,3-5.1,1.3-1.5,2.8-2.6,4.5-3.5,1.8-.9,3.7-1.3,6-1.2,3.2,0,5.7,1.2,7.6,3.2,1.9,2.1,2.8,4.7,2.7,7.9h-3.3c0-2.4-.6-4.4-1.9-5.9-1.3-1.5-3-2.3-5.3-2.3-2.4,0-4.5.6-6.3,2.1-1.8,1.5-3.2,3.5-4.1,6.2-.9,2.7-1.4,5.5-1.3,8.5,0,3.1.7,5.5,2.1,7.1,1.3,1.7,3.2,2.5,5.6,2.6Z" style="fill:#fff;"/><path d="M661.2,279.1c-.7,5-2.3,8.9-4.7,11.8-2.5,2.9-5.6,4.3-9.2,4.2-2,0-3.8-.5-5.4-1.4s-2.7-2-3.6-3.5l-1,4.3h-3.2l7.7-44.3h3.4l-3.3,17.6c2.7-3.5,6-5.2,10.1-5.1,3,0,5.3,1.2,6.9,3.3s2.5,5.1,2.5,8.8c0,1.2,0,2.4-.2,3.5v.6ZM657.8,278.5l.2-2.7c0-3.1-.5-5.5-1.6-7.2-1.2-1.7-2.9-2.6-5.2-2.7-4.2,0-7.5,2.1-9.9,6.4l-2.4,14.1c.6,1.9,1.5,3.3,2.9,4.3,1.4,1,3,1.5,4.9,1.6,2.9,0,5.3-1,7.2-3.3,1.9-2.3,3.2-5.7,3.8-10.4Z" style="fill:#fff;"/><path d="M678.5,295.2c-2.5,0-4.7-.7-6.5-2.1-1.8-1.4-3.2-3.2-4-5.5-.9-2.3-1.2-4.9-.9-7.6v-1c.4-2.9,1.2-5.6,2.7-8.2,1.4-2.6,3.3-4.6,5.5-6s4.6-2,7.1-2c2.3,0,4.3.7,5.9,1.9,1.6,1.2,2.8,2.9,3.5,5.1s1,4.6.7,7.3l-.2,2.1h-21.6v.7c-.4,2.1-.2,4.1.4,6s1.6,3.4,2.9,4.6c1.4,1.1,3,1.7,4.9,1.7,1.8,0,3.5-.3,5-1.1,1.5-.8,2.8-1.8,4.1-3.1l2,1.6c-1.4,1.8-3.1,3.2-5,4.1-1.9.9-4,1.4-6.4,1.3ZM682.1,265.8c-2.5,0-4.7.8-6.7,2.7-2,1.9-3.5,4.5-4.5,7.9h18.1s0-.4,0-.4c.3-2.7-.1-5.1-1.4-7-1.3-2-3.2-3-5.6-3.1Z" style="fill:#fff;"/><path d="M703.7,268.7c3-4,6.5-5.9,10.6-5.9,3,0,5.2,1.1,6.5,3.1,1.4,2,1.8,4.8,1.4,8.3l-3.4,20.3h-3.4l3.4-20.3c.1-1.1.1-2.1,0-3.2-.3-3.4-2.2-5.2-5.6-5.3-2,0-3.9.6-5.7,1.8s-3.3,3.1-4.6,5.6l-3.7,21.4h-3.4l7.7-44.3h3.4l-3.4,18.4Z" style="fill:#fff;"/><path d="M731.5,294.6h-3.5l5.4-31.2h3.4l-5.4,31.2ZM734.4,254.4c0-1.2.9-2,2.5-2.4.8.1,1.3.4,1.6.7.3.3.5.9.6,1.7-.2.7-.5,1.3-.8,1.6-.4.3-.9.6-1.6.7-1.6-.2-2.3-1-2.2-2.3Z" style="fill:#fff;"/><path d="M749.5,263.4l-1,5.3c1.4-1.9,3-3.4,4.8-4.4,1.8-1,3.8-1.5,5.8-1.5,3,0,5.2,1.1,6.5,3.1,1.4,2,1.8,4.8,1.4,8.3l-3.4,20.3h-3.4l3.4-20.3c.1-1.1.1-2.1,0-3.2-.3-3.4-2.2-5.2-5.6-5.3-2,0-3.9.6-5.7,1.8s-3.3,3.1-4.6,5.6l-3.7,21.4h-3.4l5.4-31.2h3.3Z" style="fill:#fff;"/><path d="M773.9,278.9c.4-3.3,1.3-6.2,2.7-8.7,1.3-2.5,3-4.4,4.9-5.6,2-1.2,4.1-1.8,6.6-1.8,1.8,0,3.5.5,5,1.3,1.5.8,2.7,2.1,3.6,3.7l3.2-17.5h3.4l-7.7,44.3h-3.2l.8-4.2c-2.7,3.3-6.1,4.8-10.1,4.7-2.9,0-5.2-1.2-6.8-3.4-1.6-2.2-2.5-5.1-2.6-8.8,0-1.2,0-2.3.1-3.5v-.6ZM777.4,279.5c-.2,1.3-.2,2.7-.2,4.1,0,2.6.7,4.7,1.8,6.2,1.1,1.5,2.8,2.3,4.9,2.4,2.1,0,4-.4,5.6-1.5,1.6-1,3-2.4,4.1-4.1l2.5-14.7c-.6-1.9-1.5-3.3-2.8-4.4-1.3-1.1-2.9-1.6-4.9-1.7-2.9,0-5.4,1-7.3,3.4-2,2.3-3.2,5.6-3.8,9.7v.6Z" style="fill:#fff;"/></g></svg>