<?xml version="1.0" encoding="UTF-8"?><svg id="b" xmlns="http://www.w3.org/2000/svg" viewBox="0 0 801.9 252.4"><g id="c"><path d="M29.9,251.8h-1.5l-19.8-40-6.9,40H0l7.3-42.7h1.6l19.8,39.9,6.9-39.9h1.6l-7.3,42.7Z" style="fill:#fff;"/><path d="M52.3,252.4c-2.5,0-4.7-.7-6.6-2.1-1.8-1.4-3.2-3.4-4-5.8-.8-2.5-1-5.1-.6-7.8l.2-1.5c.5-2.9,1.5-5.5,3-8,1.5-2.5,3.4-4.4,5.5-5.7,2.1-1.3,4.4-2,6.8-2s5.7,1.2,7.5,3.5c1.8,2.4,2.6,5.4,2.3,9.1v.9c0,0-.4,1.8-.4,1.8h-23l-.3,1.7c-.3,1.6-.3,3.3,0,5,.4,2.8,1.5,5,3.2,6.7,1.7,1.7,3.8,2.5,6.3,2.5,3.7,0,6.9-1.4,9.9-4.3l1.1.8c-2.9,3.4-6.5,5.1-10.9,5.1ZM56.6,221.1c-3,0-5.7,1.1-8.1,3.4s-4.1,5.2-5.3,8.8h21.4v-.4c.3-1.4.4-2.8.1-4.2-.4-2.3-1.3-4.1-2.7-5.5-1.5-1.4-3.3-2.1-5.4-2.1Z" style="fill:#fff;"/><path d="M79.6,249.2l15.6-29.1h1.7l-16.8,31.7h-1.6l-7.1-31.7h1.6l6.5,29.2Z" style="fill:#fff;"/><path d="M109.6,252.4c-2.5,0-4.7-.7-6.6-2.1-1.8-1.4-3.2-3.4-4-5.8-.8-2.5-1-5.1-.6-7.8l.2-1.5c.5-2.9,1.5-5.5,3-8,1.5-2.5,3.4-4.4,5.5-5.7,2.1-1.3,4.4-2,6.8-2s5.7,1.2,7.5,3.5c1.8,2.4,2.6,5.4,2.3,9.1v.9c0,0-.4,1.8-.4,1.8h-23l-.3,1.7c-.3,1.6-.3,3.3,0,5,.4,2.8,1.5,5,3.2,6.7,1.7,1.7,3.8,2.5,6.3,2.5,3.7,0,6.9-1.4,9.9-4.3l1.1.8c-2.9,3.4-6.5,5.1-10.9,5.1ZM113.9,221.1c-3,0-5.7,1.1-8.1,3.4s-4.1,5.2-5.3,8.8h21.4v-.4c.3-1.4.4-2.8.1-4.2-.4-2.3-1.3-4.1-2.7-5.5-1.5-1.4-3.3-2.1-5.4-2.1Z" style="fill:#fff;"/><path d="M146.5,221.2h-1.9c-2.6-.1-5,.8-7.3,2.8-2.2,1.9-3.8,4.3-4.5,7.1l-3.6,20.8h-1.6l5.4-31.7h1.6l-1.2,6.6c1.3-2.3,2.9-4,4.9-5.3s4-1.9,6.4-1.9,1.5.1,2.2.4l-.4,1.4Z" style="fill:#fff;"/><path d="M163.6,251.8h-1.6l7.7-45h1.6l-7.7,45Z" style="fill:#fff;"/><path d="M185.4,252.4c-2.5,0-4.7-.7-6.6-2.1-1.8-1.4-3.2-3.4-4-5.8-.8-2.5-1-5.1-.6-7.8l.2-1.5c.5-2.9,1.5-5.5,3-8,1.5-2.5,3.4-4.4,5.5-5.7,2.1-1.3,4.4-2,6.8-2s5.7,1.2,7.5,3.5c1.8,2.4,2.6,5.4,2.3,9.1v.9c0,0-.4,1.8-.4,1.8h-23l-.3,1.7c-.3,1.6-.3,3.3,0,5,.4,2.8,1.5,5,3.2,6.7,1.7,1.7,3.8,2.5,6.3,2.5,3.7,0,6.9-1.4,9.9-4.3l1.1.8c-2.9,3.4-6.5,5.1-10.9,5.1ZM189.8,221.1c-3,0-5.7,1.1-8.1,3.4s-4.1,5.2-5.3,8.8h21.4v-.4c.3-1.4.4-2.8.1-4.2-.4-2.3-1.3-4.1-2.7-5.5-1.5-1.4-3.3-2.1-5.4-2.1Z" style="fill:#fff;"/><path d="M223.6,251.8c0-1.7.1-3.7.6-5.8-1.6,2-3.6,3.6-5.8,4.7s-4.7,1.7-7.3,1.7c-2.7,0-4.8-.8-6.4-2.5s-2.2-3.7-1.8-6.2c.5-3,2.1-5.3,5-7,2.8-1.7,6.4-2.6,10.7-2.7h7.5l.8-4.6c.4-2.6-.1-4.6-1.6-6.1s-3.5-2.2-6.2-2.2-5.1.7-7.2,2.1c-2.1,1.4-3.5,3.3-4,5.6h-1.6c.5-2.8,2.1-5,4.5-6.7,2.5-1.7,5.2-2.6,8.3-2.6s5.7.9,7.4,2.7c1.7,1.8,2.4,4.3,1.9,7.3l-2.9,16.9-.2,2c0,1,0,2.1.1,3.1v.3h-1.8ZM211,250.8c2.6,0,5.1-.6,7.5-1.9,2.4-1.3,4.4-3.2,6-5.7l1.3-7.5h-7.1c-3.9,0-7.2.8-9.8,2.3s-4.1,3.4-4.6,5.9c-.4,1.9.1,3.6,1.4,4.9,1.3,1.3,3,2,5.2,2.1Z" style="fill:#fff;"/><path d="M243.8,249.2l15.6-29.1h1.7l-16.8,31.7h-1.6l-7.1-31.7h1.6l6.5,29.2Z" style="fill:#fff;"/><path d="M273.8,252.4c-2.5,0-4.7-.7-6.6-2.1-1.8-1.4-3.2-3.4-4-5.8-.8-2.5-1-5.1-.6-7.8l.2-1.5c.5-2.9,1.5-5.5,3-8,1.5-2.5,3.4-4.4,5.5-5.7,2.1-1.3,4.4-2,6.8-2s5.7,1.2,7.5,3.5c1.8,2.4,2.6,5.4,2.3,9.1v.9c0,0-.4,1.8-.4,1.8h-23l-.3,1.7c-.3,1.6-.3,3.3,0,5,.4,2.8,1.5,5,3.2,6.7,1.7,1.7,3.8,2.5,6.3,2.5,3.7,0,6.9-1.4,9.9-4.3l1.1.8c-2.9,3.4-6.5,5.1-10.9,5.1ZM278.1,221.1c-3,0-5.7,1.1-8.1,3.4s-4.1,5.2-5.3,8.8h21.4v-.4c.3-1.4.4-2.8.1-4.2-.4-2.3-1.3-4.1-2.7-5.5-1.5-1.4-3.3-2.1-5.4-2.1Z" style="fill:#fff;"/><path d="M326.1,251.8c0-1.7.1-3.7.6-5.8-1.6,2-3.6,3.6-5.8,4.7s-4.7,1.7-7.3,1.7c-2.7,0-4.8-.8-6.4-2.5s-2.2-3.7-1.8-6.2c.5-3,2.1-5.3,5-7,2.8-1.7,6.4-2.6,10.7-2.7h7.5l.8-4.6c.4-2.6-.1-4.6-1.6-6.1s-3.5-2.2-6.2-2.2-5.1.7-7.2,2.1c-2.1,1.4-3.5,3.3-4,5.6h-1.6c.5-2.8,2.1-5,4.5-6.7,2.5-1.7,5.2-2.6,8.3-2.6s5.7.9,7.4,2.7c1.7,1.8,2.4,4.3,1.9,7.3l-2.9,16.9-.2,2c0,1,0,2.1.1,3.1v.3h-1.8ZM313.5,250.8c2.6,0,5.1-.6,7.5-1.9,2.4-1.3,4.4-3.2,6-5.7l1.3-7.5h-7.1c-3.9,0-7.2.8-9.8,2.3s-4.1,3.4-4.6,5.9c-.4,1.9.1,3.6,1.4,4.9,1.3,1.3,3,2,5.2,2.1Z" style="fill:#fff;"/><path d="M342.7,227.5c1.6-2.6,3.4-4.5,5.6-5.9s4.4-2.1,6.7-2.1,4.3.6,5.7,1.9c1.4,1.2,2.2,3.1,2.4,5.4.1,1.5,0,3-.2,4.7l-3.5,20.3h-1.6l3.5-20.3c.2-1.4.3-2.7.3-4,0-2.1-.7-3.6-1.8-4.7s-2.7-1.6-4.8-1.6c-2.7,0-5.2,1.1-7.7,3.1-2.5,2-4.1,4.5-5,7.3l-3.5,20.3h-1.6l5.4-31.7h1.6l-1.4,7.4Z" style="fill:#fff;"/><path d="M369.7,235.3c.5-2.9,1.5-5.6,3-8.1,1.5-2.4,3.3-4.3,5.6-5.7s4.7-2.1,7.3-2.1,4.1.5,5.7,1.4c1.7,1,3,2.4,4,4.3,1,1.9,1.5,4,1.7,6.3,0,1.3,0,3-.4,5.1-.5,2.9-1.5,5.6-3,8.1-1.5,2.4-3.3,4.3-5.6,5.7-2.2,1.4-4.6,2-7.3,2s-4.1-.5-5.7-1.5-3-2.4-4-4.2c-1-1.9-1.5-4-1.7-6.3,0-1.3,0-3,.3-5.1ZM371,241.6c.4,2.8,1.4,5.1,3.1,6.7,1.7,1.7,3.9,2.5,6.5,2.5s5.8-1.1,8.3-3.2c2.5-2.1,4.3-5,5.3-8.7.9-3,1.2-5.9.8-8.6-.4-2.8-1.5-5.1-3.2-6.7-1.7-1.7-3.8-2.5-6.4-2.5s-5.8,1.1-8.3,3.3c-2.5,2.2-4.3,5.1-5.4,8.7-.9,3-1.2,5.8-.8,8.6Z" style="fill:#fff;"/><path d="M411.9,211.5l-1.5,8.6h6.9l-.2,1.6h-7l-4,23.2v1.6c-.2,1.3,0,2.4.7,3.1s1.5,1.1,2.8,1.2c.5,0,1.6,0,3.2-.3v1.5c-.8.2-1.9.4-3.1.4-3.3,0-5-1.7-5.2-5.1,0-1,0-2,.2-3l3.9-22.5h-5.7l.2-1.6h5.7l1.5-8.6h1.6Z" style="fill:#fff;"/><path d="M425.9,227.5c1.6-2.6,3.4-4.5,5.6-5.9s4.4-2.1,6.7-2.1,4.3.6,5.7,1.9c1.4,1.2,2.2,3.1,2.4,5.4.1,1.5,0,3-.2,4.7l-3.5,20.3h-1.6l3.5-20.3c.2-1.4.3-2.7.3-4,0-2.1-.7-3.6-1.8-4.7s-2.7-1.6-4.8-1.6c-2.7,0-5.2,1.1-7.7,3.1-2.5,2-4.1,4.5-5,7.3l-3.5,20.3h-1.6l7.8-45h1.6l-3.7,20.7Z" style="fill:#fff;"/><path d="M463.9,252.4c-2.5,0-4.7-.7-6.6-2.1-1.8-1.4-3.2-3.4-4-5.8-.8-2.5-1-5.1-.6-7.8l.2-1.5c.5-2.9,1.5-5.5,3-8,1.5-2.5,3.4-4.4,5.5-5.7,2.1-1.3,4.4-2,6.8-2s5.7,1.2,7.5,3.5c1.8,2.4,2.6,5.4,2.3,9.1v.9c0,0-.4,1.8-.4,1.8h-23l-.3,1.7c-.3,1.6-.3,3.3,0,5,.4,2.8,1.5,5,3.2,6.7,1.7,1.7,3.8,2.5,6.3,2.5,3.7,0,6.9-1.4,9.9-4.3l1.1.8c-2.9,3.4-6.5,5.1-10.9,5.1ZM468.2,221.1c-3,0-5.7,1.1-8.1,3.4s-4.1,5.2-5.3,8.8h21.4v-.4c.3-1.4.4-2.8.1-4.2-.4-2.3-1.3-4.1-2.7-5.5-1.5-1.4-3.3-2.1-5.4-2.1Z" style="fill:#fff;"/><path d="M500.9,221.2h-1.9c-2.6-.1-5,.8-7.3,2.8-2.2,1.9-3.8,4.3-4.5,7.1l-3.6,20.8h-1.6l5.4-31.7h1.6l-1.2,6.6c1.3-2.3,2.9-4,4.9-5.3s4-1.9,6.4-1.9,1.5.1,2.2.4l-.4,1.4Z" style="fill:#fff;"/><path d="M517.3,235.6c.5-3.2,1.5-6,2.9-8.6s3-4.4,5-5.7,4.1-1.9,6.4-1.9,4.2.6,5.8,1.7,2.8,2.7,3.6,4.7l3.3-19.1h1.6l-7.8,45h-1.6l1-5.1c-1.4,1.8-3.1,3.2-5,4.2s-4.1,1.5-6.4,1.5-3.8-.5-5.2-1.5-2.4-2.5-3.1-4.5c-.7-2-1-4.2-.9-6.5,0-1.1.2-2.5.4-4.2ZM518.5,239.3c-.2,2.1,0,4.1.5,5.9.5,1.8,1.3,3.2,2.5,4.1,1.2.9,2.7,1.4,4.5,1.4,2.5,0,4.8-.6,6.8-1.8s3.7-2.9,5-5l2.6-14.9c-.4-2.5-1.4-4.5-2.9-5.9-1.6-1.4-3.5-2.1-6-2.1s-4.7.8-6.6,2.5c-1.9,1.7-3.4,3.9-4.5,6.9s-1.7,5.9-1.9,8.9Z" style="fill:#fff;"/><path d="M550,251.8h-1.6l5.4-31.7h1.6l-5.4,31.7ZM554.8,210.1c0-.4.3-.8.6-1.1.4-.3.7-.5,1.2-.5s.8.2,1.1.5.4.7.3,1.2c0,.4-.3.7-.6,1.1s-.8.5-1.2.5c-.4,0-.8-.2-1.1-.5-.3-.3-.4-.7-.3-1.1Z" style="fill:#fff;"/><path d="M581,244c.7-3.7-2-6.3-8-7.8l-3.3-.9c-4.5-1.5-6.5-4.1-5.9-7.8.4-2.4,1.6-4.3,3.8-5.8s4.7-2.2,7.6-2.2,5.7.8,7.5,2.5,2.6,3.8,2.3,6.6h-1.6c.2-2.2-.4-4-2-5.4s-3.6-2.1-6.2-2.1-4.7.6-6.5,1.7c-1.9,1.2-3,2.7-3.3,4.6-.6,3.1,1.2,5.3,5.4,6.6l4.4,1.3,1.5.5c4.6,1.7,6.5,4.4,6,8.2-.4,2.5-1.7,4.5-3.9,6-2.2,1.5-4.9,2.3-8.1,2.3s-5.9-.8-7.8-2.4c-2-1.6-2.8-3.7-2.5-6.3h1.6c0,2.2.6,3.9,2.2,5.2s3.7,1.9,6.6,1.9c2.7,0,5-.7,7-1.9,2-1.2,3.1-2.8,3.5-4.8Z" style="fill:#fff;"/><path d="M600.3,250.8c2.8,0,5.2-.8,7.2-2.4s3.4-3.7,4.1-6.2h1.6c-.7,3-2.2,5.5-4.6,7.4s-5.1,2.8-8.3,2.8-5.3-.9-7.1-2.7c-1.8-1.8-2.9-4.3-3.3-7.5-.2-1.9-.2-3.7,0-5.6l.2-1.2c.5-3.1,1.5-5.9,2.9-8.3s3.2-4.3,5.2-5.6,4.3-1.9,6.8-1.9,5.7,1,7.5,3.1c1.8,2.1,2.6,4.7,2.4,7.9h-1.6c.3-2.8-.4-5.1-1.9-6.8-1.6-1.7-3.7-2.6-6.3-2.6s-6.8,1.5-9.2,4.5-3.9,7.1-4.5,12.1v2.1c-.1,3.4.7,6.1,2.2,8,1.5,1.9,3.7,2.9,6.6,2.9Z" style="fill:#fff;"/><path d="M645.6,252.4c-2.2,0-4.1-.5-5.8-1.4s-2.9-2.3-3.8-4.2l-.9,5h-1.6l7.8-45h1.6l-3.4,19.1c1.5-2.1,3.2-3.6,5.1-4.7,2-1.1,4.1-1.6,6.3-1.6s3.8.5,5.2,1.5c1.4,1,2.5,2.5,3.2,4.5s1,4.1.9,6.5c0,1.2-.2,2.5-.4,3.6l-.4,1.9c-1,4.6-2.8,8.2-5.2,10.9-2.5,2.6-5.4,4-8.7,4ZM658.3,235.6l.4-3.1c.2-2.1,0-4.1-.5-5.9s-1.4-3.2-2.6-4.1c-1.2-.9-2.7-1.4-4.5-1.4-2.6,0-5,.8-7.3,2.3-2.3,1.6-3.8,3.5-4.6,5.8l-2.6,14.5c.5,2.3,1.5,4,3.1,5.2,1.6,1.2,3.6,1.8,6,1.8s5.8-1.3,8-3.9c2.2-2.6,3.7-6.1,4.6-10.7v-.6Z" style="fill:#fff;"/><path d="M677.3,252.4c-2.5,0-4.7-.7-6.6-2.1-1.8-1.4-3.2-3.4-4-5.8-.8-2.5-1-5.1-.6-7.8l.2-1.5c.5-2.9,1.5-5.5,3-8,1.5-2.5,3.4-4.4,5.5-5.7,2.1-1.3,4.4-2,6.8-2s5.7,1.2,7.5,3.5c1.8,2.4,2.6,5.4,2.3,9.1v.9c0,0-.4,1.8-.4,1.8h-23l-.3,1.7c-.3,1.6-.3,3.3,0,5,.4,2.8,1.5,5,3.2,6.7,1.7,1.7,3.8,2.5,6.3,2.5,3.7,0,6.9-1.4,9.9-4.3l1.1.8c-2.9,3.4-6.5,5.1-10.9,5.1ZM681.6,221.1c-3,0-5.7,1.1-8.1,3.4s-4.1,5.2-5.3,8.8h21.4v-.4c.3-1.4.4-2.8.1-4.2-.4-2.3-1.3-4.1-2.7-5.5-1.5-1.4-3.3-2.1-5.4-2.1Z" style="fill:#fff;"/><path d="M701,227.5c1.6-2.6,3.4-4.5,5.6-5.9s4.4-2.1,6.7-2.1,4.3.6,5.7,1.9c1.4,1.2,2.2,3.1,2.4,5.4.1,1.5,0,3-.2,4.7l-3.5,20.3h-1.6l3.5-20.3c.2-1.4.3-2.7.3-4,0-2.1-.7-3.6-1.8-4.7s-2.7-1.6-4.8-1.6c-2.7,0-5.2,1.1-7.7,3.1-2.5,2-4.1,4.5-5,7.3l-3.5,20.3h-1.6l7.8-45h1.6l-3.7,20.7Z" style="fill:#fff;"/><path d="M729.5,251.8h-1.6l5.4-31.7h1.6l-5.4,31.7ZM734.3,210.1c0-.4.3-.8.6-1.1.4-.3.7-.5,1.2-.5s.8.2,1.1.5.4.7.3,1.2c0,.4-.3.7-.6,1.1s-.8.5-1.2.5c-.4,0-.8-.2-1.1-.5-.3-.3-.4-.7-.3-1.1Z" style="fill:#fff;"/><path d="M745.4,227.5c1.6-2.6,3.4-4.5,5.6-5.9s4.4-2.1,6.7-2.1,4.3.6,5.7,1.9c1.4,1.2,2.2,3.1,2.4,5.4.1,1.5,0,3-.2,4.7l-3.5,20.3h-1.6l3.5-20.3c.2-1.4.3-2.7.3-4,0-2.1-.7-3.6-1.8-4.7s-2.7-1.6-4.8-1.6c-2.7,0-5.2,1.1-7.7,3.1-2.5,2-4.1,4.5-5,7.3l-3.5,20.3h-1.6l5.4-31.7h1.6l-1.4,7.4Z" style="fill:#fff;"/><path d="M773.3,235.6c.5-3.2,1.5-6,2.9-8.6s3-4.4,5-5.7,4.1-1.9,6.4-1.9,4.2.6,5.8,1.7,2.8,2.7,3.6,4.7l3.3-19.1h1.6l-7.8,45h-1.6l1-5.1c-1.4,1.8-3.1,3.2-5,4.2s-4.1,1.5-6.4,1.5-3.8-.5-5.2-1.5-2.4-2.5-3.1-4.5c-.7-2-1-4.2-.9-6.5,0-1.1.2-2.5.4-4.2ZM774.5,239.3c-.2,2.1,0,4.1.5,5.9.5,1.8,1.3,3.2,2.5,4.1,1.2.9,2.7,1.4,4.5,1.4,2.5,0,4.8-.6,6.8-1.8s3.7-2.9,5-5l2.6-14.9c-.4-2.5-1.4-4.5-2.9-5.9-1.6-1.4-3.5-2.1-6-2.1s-4.7.8-6.6,2.5c-1.9,1.7-3.4,3.9-4.5,6.9s-1.7,5.9-1.9,8.9Z" style="fill:#fff;"/><path d="M150.2,108.3c-.3,2.9.3,5.8-3,5.8s-8.3-4.3-8.3-8.3c0-10.2,28.2-55.4,47.4-81.8-12,4-23.5,9-30.2,13-.6,1.8-1.6,2.1-2.1,2.1-1.4,0-4.6-2.6-4.6-5.6,0-8.3,26.2-18.9,49.8-25.3,2.1-2.2,3.7-3.7,4.5-3.7,2.7,0,4.6.3,5.9,1,8.3-1.9,15.7-3,20.3-3,13.4,0,21.1,9.6,21.1,18.9,0,21.4-41,45.1-65.3,45.1s-7-.5-9.8-2.1c-7.7,12.6-16.3,27.4-25.6,44ZM184.5,50.6c1.1.3,2.4.5,4.2.5,17,0,49.1-20.3,49.1-30.9s-4.8-4.2-13-4.2-11.4,1-18.1,2.4c-5.3,6.6-12.8,17.4-22.2,32.2Z" style="fill:#fff;"/><path d="M232,109.9c-6.4,0-11.7-5.6-11.7-13.9s12.2-31.7,21.9-41.4,5.4-4.2,7.5-4.2c3,0,5.8,4,5.8,5.9s-1.8,3.4-4.6,7.2c-5.9,7.7-15,19.7-15,25.9s1.3,3.4,3.4,3.4c11,0,26.6-19.8,28.8-19.8s2.9,3.5,2.9,6.1c0,4.5-23.2,30.9-38.9,30.9ZM255.4,35.2c0-3.5,4.5-12.5,11.7-12.5s5.9,2.6,5.9,6.4-5.9,13-11.2,13-6.4-2.9-6.4-6.9Z" style="fill:#fff;"/><path d="M273,89.4c0,5.8,3.5,8.5,8.3,8.5,17.4,0,36.5-25,39.2-25s2.9,3.2,2.9,6.1c0,6.6-26.9,30.9-44.2,30.9s-19.7-9.6-19.7-19c0-18.7,24.5-40.3,38.1-40.3s6.9,2.6,7.4,4.3c2.7,1.3,2.9,3.4,2.9,4,0,2.2-1.6,4.3-7.4,10.6-2.1,2.4-3.4,4.3-5.8,4.3s-5.3-1.1-5.3-4.3.3-2.4,1-4.2c-14.2,10.4-17.4,18.7-17.4,24.2Z" style="fill:#fff;"/><path d="M339.4,73.6c-.5,3.7-.6,7-.6,9.8,0,7.2,1.4,12,6.2,12,9.3,0,29-22.4,30.9-22.4s2.9,3.4,2.9,6.1c0,5.3-23.5,30.9-38.7,30.9s-11.5-3.5-11.5-17.8.3-7.8,1.4-12.6c-1.1.6-2.2,1.3-3.2,2.1-4.8,8.6-9.9,18.1-14.9,28.3-1.8,3.7-3,5.1-6.1,5.1-4.6,0-5.3-3.4-5.3-5.4,0-6.6,10.7-25.9,26.9-52.2,22.6-36.3,27-42.7,31.7-42.7s3.7,2.1,3.7,4.5-11.5,19.8-27,46.6c12.6-8.3,26.7-16.8,33.1-16.8s2.6,1.3,2.6,4.2c0,5.4-1.8,7.8-3.8,7.8s-1.4-.2-1.8-.3c-6.7,2.2-15.8,6.7-26.4,13Z" style="fill:#fff;"/><path d="M388.2,25.6c0-2.1,4.2-12.6,7-19.4,2.2-4.8,4.5-6.2,6.9-6.2s7,2.7,7,5c0,3.2-4.5,10.7-11.7,21.1-1,1.4-3.2,4.5-4.3,4.5-2.4,0-5-3-5-5Z" style="fill:#fff;"/><path d="M396.6,94.6c14.7-1.9,25.8-2.4,30.9-2.4,8.3,0,11.2,4,11.2,8.2s-1,6.2-3.5,6.2-2.9-.2-4.8-.2c-18.7,0-41.1,7.7-48.2,7.7-4.6-.3-6.2-5.1-6.2-9.4,0-12.2,24.8-49.6,48.8-77-1.6-1.8-2.7-4.3-2.7-7.4s0-4.8,16.2-7c2.6-2.6,4.3-3.5,6.2-3.5s2.2,1,3,2.4c9.1-1,16.2-1.3,22.1-1.3s10.6,7.4,10.6,12-1.9,2.7-7.4,2.7c-11.8,0-24.8,2.1-33.3,3.5-5.8,7.4-11.5,15.4-17,23.7,5.8-1,9.9-1.3,12.8-1.3,10.4,0,12,4,12,5.8s-1.1,3.2-2.6,4.5c1,.8,1.1,1.6,1.1,1.9,0,1.3-1,1.4-2.6,1.4-8.6,0-21.3,1.4-30.9,3.2-4.8,7.7-9.3,15.2-13.3,21.9l-2.6,4.3Z" style="fill:#fff;"/><path d="M479,107.8c-2.1,0-5-1.8-5-5.4,0-5.9,13.8-27.4,19.2-35.7-13.1,12.3-24.8,25-34.6,36-4.3,4.8-6.6,9.3-8.8,9.3s-5.1-3.8-5.1-7.8,1-5.9,8.5-18.4c17.8-29,21.6-31.4,23.2-31.4s4.5,2.7,4.5,4.8-4.6,11-13.3,25c23-23.8,28.8-29.1,32.5-29.1s4.8,1.9,4.8,3.8c0,3.2-8.8,17.9-13.1,26.4,24.3-25,32-31.4,34.1-31.4s4.8,3.2,4.8,5.3c0,3-17.4,20-17.4,31.8s.3,4.3,3,4.3c9.8,0,29.1-22.4,30.9-22.4s2.9,3.5,2.9,6.1c0,5-24.6,30.9-37,30.9s-11-4-11-12,2.6-14.1,8.5-22.9c-23.2,21.6-26.9,32.8-31.5,32.8Z" style="fill:#fff;"/><path d="M548.6,114.2c-3.8,0-8.2-1.8-11-4.6-3.5-3.4-5-7.7-5-13.3,0-20.2,30.9-60.5,46.1-75.7,4.8-4.8,7-5.6,9-5.6s4.6,3.4,4.6,5.6c0,4.2-4.8,8.3-15.7,21.6-14.1,17.3-29.8,42.7-29.8,51.7s.8,3.8,2.7,3.8c16.6,0,56.3-64.8,71.5-85,3.4-4.3,5.6-5.8,7.2-5.8,2.7,0,8.2,2.9,8.2,5.3s-.5,1.9-2.9,4.2c-9.6,13.9-41.9,57.3-41.9,73.9s.6,3.4,2.6,3.4c10.2,0,27.4-20.8,29.4-20.8s2.9,3.7,2.9,6.1c0,5-23,30.9-35.5,30.9s-11.5-7.2-11.5-16,1.3-9.3,3.7-15.5c-11.5,18.2-26.1,35.8-34.6,35.8Z" style="fill:#fff;"/><path d="M598.9,144.5c-1.4,5-3.2,6.2-6.2,6.2-4.6,0-6.9-5.8-6.9-8.3,0-10.1,16.3-35.4,32.2-62.2,29.1-49.4,28.3-51.5,33.8-51.5s5.9,2.2,5.9,5-4.8,9.9-11.7,21.6c5-4,9.8-6.6,13.6-6.6s7.7,4,7.7,10.2c0,16.5-20.6,51-37.3,51s-8-3.8-9.8-8c-6.7,12.6-13.9,26.9-21.3,42.6ZM651.5,65.9c0-1.8-.6-2.7-1.6-2.7-3.2,0-9.4,6.6-14.1,13.3-6.4,9.1-8.6,13.1-8.6,16s.6,2.7,3,2.7c7.2,0,21.3-22.1,21.3-29.3Z" style="fill:#fff;"/></g></svg>