<?xml version="1.0" encoding="UTF-8"?><svg id="b" xmlns="http://www.w3.org/2000/svg" xmlns:xlink="http://www.w3.org/1999/xlink" viewBox="0 0 1250 1791.1"><defs><clipPath id="d"><rect x="714.3" y="880.4" width="535.7" height="910.7" style="fill:none;"/></clipPath></defs><g id="c"><rect width="1250" height="1791.1" style="fill:#27ae60;"/><path d="M878.3,289.9c-21.3-14.2-24.5-62.9-3.6-82.1,25.8-23.7,77,7.6,92.9-14.3,11.7-16.1-12.1-38.2,0-60.7,11.5-21.4,50.2-32.9,75-17.9,26.8,16.3,25.2,56.1,25,60.7-1.1,28.7-17.3,38.1-10.7,53.6,8.1,19.1,36.2,12.1,46.4,32.1,8.6,16.7.2,43.4-17.9,57.1-20.1,15.3-48,11.4-64.3,0-23.3-16.3-17.2-44.2-35.7-50-12.8-4-19,8.2-50,17.9-20.2,6.3-42.6,13.3-57.1,3.6Z" style="fill:#0f7237; stroke:#0f7237; stroke-miterlimit:10; stroke-width:5px;"/><path d="M264,1475.2c-34-18.6-51.5-63.2-50-110.7-41.3,3.6-80.5-10.7-96.4-39.3-25.2-45.1,17.7-107.1,60.7-132.1,5.6-3.3,56.3-31.9,92.9-10.7,34.3,19.9,26.8,66.6,57.1,75,20.2,5.6,28-13.9,64.3-14.3,9.6-.1,42.1-.5,60.7,21.4,16.6,19.5,13.1,46,10.7,64.3-6.4,48.9-35.9,82-46.4,92.9-6.8,7-88.7,89.1-153.6,53.6Z" style="fill:#0f7237; stroke:#0f7237; stroke-miterlimit:10; stroke-width:5px;"/><path d="M217.1,119.9c-9.9,6.8-52.8,38-84.6,122.2-26.9,71.4-45.6,120.8-20.1,166.7,30.7,55.2,116.6,89.5,160.1,57.5,41-30.2,39.3-115.4,4.8-157.4-19.3-23.6,14.2-33.5,11.6-54.7-3.2-26.3-28-44.4-6.6-61.1,47-36.7,51.8-43.3,53-60.4,1.4-19.5-11.4-36.9-49.8-37.6-31.1-.6-54,14.8-68.5,24.8Z" style="fill:#0f7237; stroke:#0f7237; stroke-miterlimit:10; stroke-width:5px;"/><g style="clip-path:url(#d);"><ellipse cx="1458.9" cy="1835.7" rx="551.8" ry="776.8" style="fill:#999; stroke:#666; stroke-miterlimit:10; stroke-width:5px;"/><ellipse cx="1465.2" cy="1815" rx="481.3" ry="677.5" style="fill:#27ae60; stroke:#666; stroke-miterlimit:10; stroke-width:5px;"/></g></g></svg>