<?xml version="1.0" encoding="UTF-8"?><svg id="b" xmlns="http://www.w3.org/2000/svg" viewBox="0 0 1250 1791.1"><g id="c"><rect x="0" width="1250" height="1791.1" style="fill:#34495e;"/><path d="M0,614.6l209.6-24.7c8.9-1.1,17.9-1.1,26.9-.2l106.6,10.7c7.1.7,14.3,1.9,21.3,3.5l142.4,33c22.9,5.3,46.8,1.3,67.4-11.4l37.4-23.1c15.3-9.4,31.4-16.9,48.2-22.2l188.8-60.1c49.1-15.6,100.5-19.1,150.9-10.1l46.7,8.3,203.8,52.5v1220.2H0V614.6Z" style="fill:#27ae60;"/><line x1="932.4" y1="652.1" x2="932.4" y2="300.6" style="fill:none; stroke:gray; stroke-miterlimit:10; stroke-width:40px;"/><line x1="807.7" y1="398.5" x2="1054.4" y2="398.5" style="fill:none; stroke:gray; stroke-miterlimit:10; stroke-width:10px;"/><line x1="1052.7" y1="398.8" x2="1052.7" y2="329" style="fill:none; stroke:gray; stroke-miterlimit:10; stroke-width:10px;"/><line x1="809.3" y1="398.8" x2="809.3" y2="329" style="fill:none; stroke:gray; stroke-miterlimit:10; stroke-width:10px;"/><line x1="807.7" y1="330.7" x2="1054.4" y2="330.7" style="fill:none; stroke:gray; stroke-miterlimit:10; stroke-width:10px;"/><line x1="1012.1" y1="398.8" x2="1012.1" y2="329" style="fill:none; stroke:gray; stroke-miterlimit:10; stroke-width:10px;"/><line x1="890.4" y1="398.8" x2="890.4" y2="329" style="fill:none; stroke:gray; stroke-miterlimit:10; stroke-width:10px;"/><line x1="849.9" y1="398.8" x2="849.9" y2="329" style="fill:none; stroke:gray; stroke-miterlimit:10; stroke-width:10px;"/><line x1="971.5" y1="398.8" x2="971.5" y2="329" style="fill:none; stroke:gray; stroke-miterlimit:10; stroke-width:10px;"/><path d="M958,159.5c0,104.2-11.6,188.7-25.8,188.7s-25.8-84.5-25.8-188.7h51.7Z" style="fill:none; stroke:gray; stroke-miterlimit:10; stroke-width:16.9px;"/><path d="M1001.2,159.5c0,104.2-39.6,188.7-88.5,188.7s-88.5-84.5-88.5-188.7h177Z" style="fill:none; stroke:gray; stroke-miterlimit:10; stroke-width:19.2px;"/><path d="M1040.1,159.5c0,104.2-39.6,188.7-88.5,188.7s-88.5-84.5-88.5-188.7h177Z" style="fill:none; stroke:gray; stroke-miterlimit:10; stroke-width:19.2px;"/><rect x="809.6" y="126.2" width="245.1" height="33.3" style="fill:#ffff85;"/></g></svg>